<svg id="Layer_1" data-name="Layer 1" xmlns="http://www.w3.org/2000/svg" viewBox="0 0 440 440"><defs><style>.cls-1{fill:#f9f4f1;}.cls-2{fill:#ffaf13;}.cls-3{fill:#ff8113;}.cls-4{fill:#ec1d32;}.cls-5{fill:#ff313b;}.cls-6{fill:#374a63;}.cls-7{fill:#a91d32;}.cls-8{fill:#fff;}.cls-9{fill:#fa0;}</style></defs><circle class="cls-1" cx="220" cy="220" r="220"/><path class="cls-2" d="M365.49,375.31,346.75,245a10.89,10.89,0,0,0-4.83-7.55L286,201.17a10.84,10.84,0,0,0-14.13,2l-43.39,50.58a10.84,10.84,0,0,0-2.5,8.6l18.75,130.3A10.83,10.83,0,0,0,257,401.86l49.64-7.14,49.64-7.14A10.83,10.83,0,0,0,365.49,375.31ZM286.22,252.6A12.7,12.7,0,1,1,297,238.22,12.71,12.71,0,0,1,286.22,252.6Z" transform="translate(-120 -55)"/><path class="cls-3" d="M346.75,245a10.89,10.89,0,0,0-4.83-7.55L286,201.17a10.79,10.79,0,0,0-8.72-1.34l-24.14,40.61a13,13,0,0,0-1.19,10.7l47.23,144.65,7.46-1.07,49.64-7.14a10.83,10.83,0,0,0,9.18-12.27Z" transform="translate(-120 -55)"/><path class="cls-4" d="M469.54,347,404.25,189.08a14.06,14.06,0,0,0-8.48-8l-81.94-27.78a14.07,14.07,0,0,0-17.13,7.07L258.29,238a14.07,14.07,0,0,0-.4,11.62l65.28,158a14.07,14.07,0,0,0,18.38,7.63l60.18-24.87,60.18-24.87A14.08,14.08,0,0,0,469.54,347Zm-139-129a16.5,16.5,0,1,1,8.94-21.55A16.5,16.5,0,0,1,330.53,218Z" transform="translate(-120 -55)"/><path class="cls-5" d="M336.18,409.46a7.31,7.31,0,0,1-6.76-4.52L264.14,247a7.32,7.32,0,0,1,.21-6l38.41-77.52a7.3,7.3,0,0,1,8.9-3.68l81.94,27.78a7.37,7.37,0,0,1,4.41,4.13l65.28,158a7.33,7.33,0,0,1-4,9.55L339,408.9a7.28,7.28,0,0,1-2.79.56Zm-12-230a23.27,23.27,0,1,0,8.89,44.76,23.26,23.26,0,0,0-8.89-44.76Z" transform="translate(-120 -55)"/><path class="cls-4" d="M390.43,197.53,322.5,365.23a7,7,0,0,0,0,5.3l13.15,31.82a.53.53,0,0,0,.51.34l.2,0,120.36-49.74a.52.52,0,0,0,.3-.3.51.51,0,0,0,0-.42L393.11,197.52A1.45,1.45,0,0,0,390.43,197.53Z" transform="translate(-120 -55)"/><path class="cls-6" d="M281.2,191.7l4.62-9.31c-19.64-10.09-34.14-22.54-36.09-31a5.66,5.66,0,0,1,1-5.06c.82-1.09,2.13-2.33,5.45-2.16,15.75.78,47.3,30.46,61.11,53.31a5.2,5.2,0,0,0,8.89-5.38c-13.94-23.06-47.94-57.24-69.48-58.32-6.05-.26-11,1.88-14.29,6.31a16.07,16.07,0,0,0-2.78,13.64c4,17.5,32.82,33.47,41.54,38Z" transform="translate(-120 -55)"/><path class="cls-7" d="M345.85,365.38A8.45,8.45,0,0,1,338,353.75l41-101.13A8.45,8.45,0,1,1,394.72,259l-41,101.13A8.46,8.46,0,0,1,345.85,365.38Z" transform="translate(-120 -55)"/><path class="cls-7" d="M329.24,314.82a23.61,23.61,0,0,1-8.83-1.73,23.49,23.49,0,1,1,30.47-30.92h0a23.52,23.52,0,0,1-21.64,32.65Zm0-30.08a6.39,6.39,0,0,0-2.55.52,6.57,6.57,0,1,0,8.63,3.5A6.61,6.61,0,0,0,329.23,284.74Z" transform="translate(-120 -55)"/><path class="cls-7" d="M403.51,344.9a23.5,23.5,0,1,1,9.12-1.86A23.54,23.54,0,0,1,403.51,344.9Zm0-30.08a6.51,6.51,0,0,0-2.56.52,6.59,6.59,0,1,0,8.62,3.5h0a6.56,6.56,0,0,0-3.58-3.53A6.49,6.49,0,0,0,403.48,314.82Z" transform="translate(-120 -55)"/><path class="cls-8" d="M345.85,362A8.45,8.45,0,0,1,338,350.37l41-101.13a8.45,8.45,0,1,1,15.67,6.35l-41,101.13A8.46,8.46,0,0,1,345.85,362Z" transform="translate(-120 -55)"/><path class="cls-8" d="M329.24,311.44a23.61,23.61,0,0,1-8.83-1.73,23.49,23.49,0,1,1,30.47-30.92h0a23.52,23.52,0,0,1-21.64,32.65Zm0-30.08a6.39,6.39,0,0,0-2.55.52,6.57,6.57,0,1,0,8.63,3.5A6.61,6.61,0,0,0,329.23,281.36Z" transform="translate(-120 -55)"/><path class="cls-8" d="M403.51,341.52a23.5,23.5,0,1,1,9.12-1.86A23.53,23.53,0,0,1,403.51,341.52Zm0-30.08a6.51,6.51,0,0,0-2.56.52,6.59,6.59,0,1,0,8.62,3.5h0a6.6,6.6,0,0,0-6.06-4Z" transform="translate(-120 -55)"/><path class="cls-9" d="M336.88,147.87a3.21,3.21,0,0,1-3.2-3.2v-32a3.2,3.2,0,0,1,6.4,0v32A3.2,3.2,0,0,1,336.88,147.87Z" transform="translate(-120 -55)"/><path class="cls-9" d="M422.48,166.16a3.2,3.2,0,0,1-2.26-5.46l17.4-17.41a3.2,3.2,0,0,1,4.53,4.52l-17.41,17.41A3.2,3.2,0,0,1,422.48,166.16Z" transform="translate(-120 -55)"/><path class="cls-9" d="M478.91,251.75H447a3.2,3.2,0,1,1,0-6.4h32a3.2,3.2,0,0,1,0,6.4Z" transform="translate(-120 -55)"/><path class="cls-5" d="M476.4,297.2a2.29,2.29,0,0,1-.88-.17l-19.15-7.94a2.28,2.28,0,1,1,1.74-4.22l19.16,7.93a2.29,2.29,0,0,1-.87,4.4Z" transform="translate(-120 -55)"/><path class="cls-5" d="M375.9,156.65a2.46,2.46,0,0,1-.88-.17,2.29,2.29,0,0,1-1.23-3l7.93-19.16a2.29,2.29,0,0,1,4.22,1.76L378,155.24A2.29,2.29,0,0,1,375.9,156.65Z" transform="translate(-120 -55)"/><path class="cls-5" d="M300.39,142.44a2.3,2.3,0,0,1-2.12-1.41l-7.42-17.92a2.29,2.29,0,0,1,4.23-1.75l7.42,17.92a2.3,2.3,0,0,1-1.24,3A2.25,2.25,0,0,1,300.39,142.44Z" transform="translate(-120 -55)"/><path class="cls-5" d="M431.07,211.83a2.3,2.3,0,0,1-2.11-1.42,2.28,2.28,0,0,1,1.24-3l19.15-7.94a2.28,2.28,0,1,1,1.75,4.22L432,211.65A2.31,2.31,0,0,1,431.07,211.83Z" transform="translate(-120 -55)"/><path class="cls-9" d="M244.25,210a3.2,3.2,0,0,1-2.26-.94l-17.41-17.41a3.2,3.2,0,0,1,4.52-4.52l17.41,17.41a3.2,3.2,0,0,1-2.26,5.46Z" transform="translate(-120 -55)"/><path class="cls-9" d="M209.93,388.48a3.2,3.2,0,0,1-2.26-5.46l17.41-17.41a3.2,3.2,0,0,1,4.52,4.52l-17.4,17.41A3.19,3.19,0,0,1,209.93,388.48Z" transform="translate(-120 -55)"/><path class="cls-9" d="M206.25,285.48h-32a3.2,3.2,0,1,1,0-6.4h32a3.2,3.2,0,0,1,0,6.4Z" transform="translate(-120 -55)"/><path class="cls-5" d="M222.13,245.55a2.29,2.29,0,0,1-.88-.17l-19.15-7.94a2.28,2.28,0,1,1,1.75-4.22L223,241.15a2.29,2.29,0,0,1-.87,4.4Z" transform="translate(-120 -55)"/><path class="cls-5" d="M193.71,337.69a2.29,2.29,0,0,1-.87-4.4L212,325.36a2.28,2.28,0,1,1,1.75,4.22l-19.16,7.93A2.22,2.22,0,0,1,193.71,337.69Z" transform="translate(-120 -55)"/></svg>