<?xml version="1.0" standalone="no"?>
<!DOCTYPE svg PUBLIC "-//W3C//DTD SVG 20010904//EN"
 "http://www.w3.org/TR/2001/REC-SVG-20010904/DTD/svg10.dtd">
<svg version="1.0" xmlns="http://www.w3.org/2000/svg"
 width="928.000000pt" height="928.000000pt" viewBox="0 0 928.000000 928.000000"
 preserveAspectRatio="xMidYMid meet">
<metadata>
Created by potrace 1.14, written by Peter Selinger 2001-2017
</metadata>
<g transform="translate(0.000000,928.000000) scale(0.100000,-0.100000)"
fill="#000000" stroke="none">
<path d="M3858 8955 c-2 -2 -77 -6 -168 -10 -91 -3 -208 -8 -260 -10 -52 -2
-174 -6 -270 -10 -154 -6 -212 -9 -230 -14 -3 0 -5 -41 -5 -91 0 -73 3 -90 15
-91 8 0 24 -3 35 -5 11 -3 36 -6 55 -8 75 -8 146 -17 160 -21 8 -2 51 -7 95
-10 112 -8 143 -14 200 -42 170 -82 249 -257 204 -451 -6 -26 -12 -60 -14 -75
-12 -86 -74 -267 -149 -429 -19 -43 -32 -78 -29 -78 3 0 1 -6 -5 -12 -9 -11
-162 -373 -162 -384 0 -2 -11 -27 -24 -56 -14 -29 -26 -60 -28 -68 -2 -8 -5
-17 -8 -20 -5 -4 -82 -195 -86 -210 0 -3 -6 -16 -12 -30 -43 -100 -262 -656
-262 -667 0 -7 -4 -13 -10 -13 -5 0 -10 -6 -10 -13 0 -11 -33 -99 -83 -217 -5
-14 -11 -29 -13 -35 -1 -5 -43 -112 -92 -236 -50 -124 -107 -268 -127 -320
-21 -52 -42 -105 -48 -119 -6 -14 -11 -27 -12 -30 -9 -27 -19 -49 -31 -72 -8
-16 -12 -28 -8 -28 3 0 1 -7 -6 -15 -7 -8 -10 -15 -6 -15 4 0 -1 -11 -9 -24
-9 -13 -17 -32 -20 -42 -3 -17 -92 -240 -115 -289 -5 -11 -29 -69 -54 -130
-44 -113 -244 -588 -277 -660 -61 -135 -76 -174 -71 -179 3 -3 0 -6 -6 -6 -7
0 -12 -7 -12 -15 0 -8 -9 -30 -20 -50 -11 -19 -20 -37 -20 -40 0 -3 -9 -25
-20 -51 -11 -25 -20 -50 -20 -55 0 -5 -4 -9 -10 -9 -5 0 -9 -3 -8 -7 2 -10
-10 -43 -23 -63 -5 -8 -12 -22 -15 -30 -16 -39 -72 -163 -126 -280 -54 -115
-386 -782 -431 -865 -121 -225 -148 -274 -260 -470 -116 -204 -116 -205 -143
-244 -13 -20 -24 -39 -24 -44 0 -4 -5 -13 -10 -20 -13 -15 -134 -207 -143
-227 -7 -15 -110 -176 -124 -195 -4 -6 -39 -58 -78 -115 -38 -58 -74 -108 -80
-112 -5 -4 -6 -8 -2 -8 5 0 2 -6 -5 -14 -7 -7 -20 -24 -28 -36 -21 -31 -207
-293 -217 -305 -32 -38 -83 -109 -83 -115 0 -8 2796 -11 2816 -3 6 2 10 32 10
70 l-1 66 -125 43 c-69 24 -192 67 -275 94 -82 28 -159 54 -170 59 -11 4 -45
16 -75 26 -125 41 -330 136 -338 157 -2 4 -8 8 -13 8 -12 0 -21 8 -99 79 -116
105 -171 230 -175 395 -1 55 2 118 7 140 5 23 11 55 12 71 3 31 50 194 66 230
5 11 30 85 56 165 25 80 51 151 57 158 5 6 7 12 4 12 -4 0 7 37 24 83 16 45
32 89 34 97 5 18 102 288 112 310 3 8 7 20 8 25 2 6 12 33 23 60 11 28 32 84
47 125 14 41 31 84 36 95 13 31 71 179 74 190 1 6 6 19 10 30 4 11 23 58 42
105 19 47 39 96 45 110 6 14 14 34 18 45 5 11 16 38 26 60 9 22 17 46 17 53 0
6 4 12 9 12 4 0 7 3 6 8 -2 6 45 122 112 277 28 66 33 80 32 88 -1 4 2 7 7 7
5 0 12 11 15 25 7 25 32 85 87 202 19 39 47 78 79 106 87 78 265 157 390 172
109 13 328 17 1120 19 649 2 856 0 893 -10 54 -14 118 -50 163 -91 37 -33 104
-127 104 -145 0 -7 11 -35 24 -63 23 -48 53 -112 111 -240 45 -100 107 -229
116 -245 5 -8 12 -22 15 -30 3 -8 26 -58 51 -110 26 -52 46 -101 46 -107 0 -7
3 -13 7 -13 3 0 17 -24 30 -52 45 -100 151 -323 171 -360 11 -21 19 -39 18
-40 -1 -2 20 -48 46 -103 26 -55 48 -105 49 -111 1 -7 8 -19 15 -28 7 -9 10
-16 6 -16 -4 0 -3 -6 3 -12 5 -7 33 -67 62 -133 29 -66 67 -152 85 -190 18
-39 38 -87 46 -108 7 -20 16 -37 19 -37 4 0 7 -6 7 -12 0 -7 9 -33 21 -58 11
-25 59 -133 107 -240 126 -281 127 -283 192 -420 153 -318 240 -487 269 -521
8 -8 14 -20 14 -24 0 -8 76 -123 90 -135 3 -3 18 -22 33 -43 30 -40 120 -132
177 -182 57 -50 123 -92 196 -126 149 -68 172 -73 464 -96 90 -7 1070 -9 1070
-2 0 3 17 4 38 1 20 -2 42 -3 47 -2 6 0 74 2 152 3 78 2 146 6 150 11 4 4 13
26 20 49 10 35 10 44 -4 59 -8 9 -18 16 -22 15 -6 -2 -142 72 -151 82 -3 3
-17 12 -32 20 -16 8 -28 18 -28 23 0 4 -5 8 -11 8 -28 0 -282 225 -369 326
-71 83 -120 144 -120 148 0 6 -24 37 -47 61 -7 8 -13 16 -13 19 0 3 -21 36
-48 73 -26 38 -53 79 -60 93 -6 14 -16 32 -22 40 -42 62 -270 504 -270 523 0
2 -19 44 -42 93 -23 49 -43 91 -44 94 0 3 -11 28 -24 55 -12 28 -31 70 -42 95
-11 25 -26 58 -34 74 -8 16 -14 35 -14 43 0 7 -4 13 -10 13 -5 0 -10 7 -10 15
0 8 -4 23 -10 33 -12 21 -80 172 -80 177 0 4 -12 31 -68 155 -9 19 -17 37 -17
40 -1 3 -9 23 -19 45 -28 64 -39 90 -40 95 -1 3 -9 21 -18 40 -9 19 -34 78
-56 130 -22 52 -48 109 -56 125 -9 17 -16 38 -16 48 0 9 -5 17 -11 17 -6 0 -9
6 -6 13 2 6 -1 19 -8 27 -6 8 -18 31 -25 50 -18 49 -39 99 -58 140 -8 19 -16
37 -17 40 -4 13 -19 49 -36 87 -10 24 -19 45 -19 48 0 2 -11 28 -24 57 -38 84
-90 213 -88 216 2 1 -4 15 -12 30 -9 15 -32 68 -52 117 -20 50 -45 110 -56
134 -11 25 -26 61 -33 80 -7 20 -21 54 -31 76 -10 22 -18 45 -20 50 -1 6 -12
33 -24 60 -12 28 -25 59 -30 70 -4 11 -18 44 -31 74 -13 30 -24 57 -25 60 0 3
-6 18 -12 33 -6 15 -27 67 -47 115 -20 48 -40 97 -45 108 -5 11 -19 45 -31 75
-12 30 -27 69 -34 85 -8 17 -28 66 -45 110 -17 44 -37 94 -44 110 -7 17 -32
77 -55 135 -24 58 -50 119 -59 135 -9 17 -15 30 -13 30 3 0 -2 12 -73 189 -31
76 -63 151 -72 167 -8 16 -14 31 -14 34 0 3 -7 21 -15 41 -8 20 -15 38 -15 39
0 1 -8 20 -17 41 -9 22 -18 44 -19 49 -2 9 -49 123 -79 190 -7 17 -34 84 -60
150 -26 66 -51 129 -56 140 -5 11 -20 49 -33 85 -13 36 -30 79 -37 95 -7 17
-13 32 -13 35 -1 3 -11 30 -23 60 -12 30 -45 118 -74 195 -28 77 -61 160 -71
184 -11 25 -21 52 -23 60 -4 23 -37 104 -46 117 -5 6 -10 19 -12 30 -2 10 -9
30 -14 44 -6 14 -39 95 -73 180 -34 85 -70 173 -79 195 -28 64 -34 79 -33 88
1 4 -2 7 -8 7 -5 0 -10 6 -10 14 0 8 -7 27 -14 43 -8 15 -42 85 -75 156 -61
130 -167 319 -183 325 -4 2 -8 8 -8 13 0 17 -82 121 -153 195 -71 74 -167 134
-224 139 -15 2 -62 6 -103 10 -41 4 -88 9 -105 11 -34 6 -782 14 -787 9z m216
-1527 c8 -18 38 -94 66 -168 28 -74 56 -144 60 -155 5 -11 29 -72 54 -135 24
-63 65 -169 90 -235 26 -66 51 -129 56 -140 5 -11 32 -81 60 -155 29 -74 58
-149 66 -167 8 -17 14 -34 14 -38 0 -4 6 -21 14 -38 8 -18 42 -104 76 -192 58
-151 67 -173 89 -227 6 -13 33 -84 61 -158 29 -74 58 -148 65 -165 19 -42 56
-143 57 -152 0 -5 6 -19 13 -33 7 -14 34 -79 60 -145 75 -194 97 -248 110
-280 8 -16 16 -41 20 -55 l6 -26 -1135 0 c-625 0 -1136 3 -1136 6 0 8 41 113
48 125 4 5 7 12 8 15 0 3 5 16 11 30 6 14 27 63 46 110 55 133 117 281 138
327 10 23 19 44 19 48 0 3 11 27 24 54 24 51 41 100 38 114 -1 4 2 7 8 7 5 0
10 5 10 11 0 6 7 25 14 42 8 18 58 136 111 262 52 127 100 239 105 250 35 77
80 191 80 202 0 7 4 13 8 13 5 0 9 6 9 13 1 10 74 191 103 252 13 29 43 99 44
105 1 5 70 169 86 205 5 11 21 49 36 85 15 36 34 81 42 100 9 19 16 37 17 40
1 6 59 146 83 200 8 19 14 38 14 43 -1 4 1 7 6 7 5 1 92 24 109 29 1 1 9 -14
17 -31z"/>
</g>
</svg>
